<svg xmlns="http://www.w3.org/2000/svg" xmlns:xlink="http://www.w3.org/1999/xlink" width="225" zoomAndPan="magnify" viewBox="0 0 168.75 74.999997" height="100" preserveAspectRatio="xMidYMid meet" version="1.0"><defs><g/><clipPath id="647807002a"><path d="M 27 24.015625 L 34 24.015625 L 34 31 L 27 31 Z M 27 24.015625 " clip-rule="nonzero"/></clipPath><clipPath id="54328636c8"><path d="M 10 24.015625 L 43.519531 24.015625 L 43.519531 50.976562 L 10 50.976562 Z M 10 24.015625 " clip-rule="nonzero"/></clipPath><clipPath id="f9bdb8f5da"><rect x="0" width="102" y="0" height="31"/></clipPath></defs><path fill="#f29b2b" d="M 13.507812 39.917969 C 13.082031 39.917969 12.675781 39.835938 12.285156 39.671875 C 11.894531 39.511719 11.546875 39.28125 11.25 38.980469 C 10.949219 38.683594 10.71875 38.335938 10.558594 37.945312 C 10.394531 37.554688 10.316406 37.148438 10.316406 36.726562 C 10.316406 36.300781 10.394531 35.894531 10.558594 35.503906 C 10.71875 35.113281 10.949219 34.765625 11.25 34.46875 C 11.546875 34.167969 11.894531 33.9375 12.285156 33.777344 C 12.675781 33.613281 13.082031 33.535156 13.507812 33.535156 C 13.929688 33.535156 14.335938 33.613281 14.726562 33.777344 C 15.117188 33.9375 15.464844 34.167969 15.761719 34.46875 C 16.0625 34.765625 16.292969 35.113281 16.453125 35.503906 C 16.617188 35.894531 16.699219 36.300781 16.699219 36.726562 C 16.699219 37.148438 16.617188 37.554688 16.453125 37.945312 C 16.292969 38.335938 16.0625 38.683594 15.761719 38.980469 C 15.464844 39.28125 15.117188 39.511719 14.726562 39.671875 C 14.335938 39.835938 13.929688 39.917969 13.507812 39.917969 Z M 13.507812 39.917969 " fill-opacity="1" fill-rule="nonzero"/><g clip-path="url(#647807002a)"><path fill="#f29b2b" d="M 30.761719 30.632812 C 30.339844 30.632812 29.933594 30.554688 29.542969 30.390625 C 29.152344 30.230469 28.804688 30 28.507812 29.699219 C 28.207031 29.398438 27.976562 29.054688 27.816406 28.664062 C 27.652344 28.273438 27.570312 27.867188 27.570312 27.441406 C 27.570312 27.019531 27.652344 26.613281 27.816406 26.222656 C 27.976562 25.828125 28.207031 25.484375 28.507812 25.183594 C 28.804688 24.886719 29.152344 24.65625 29.542969 24.492188 C 29.933594 24.332031 30.339844 24.25 30.761719 24.25 C 31.1875 24.25 31.59375 24.332031 31.984375 24.492188 C 32.375 24.65625 32.722656 24.886719 33.019531 25.183594 C 33.320312 25.484375 33.550781 25.828125 33.710938 26.222656 C 33.875 26.613281 33.953125 27.019531 33.953125 27.441406 C 33.953125 27.867188 33.875 28.273438 33.710938 28.664062 C 33.550781 29.054688 33.320312 29.398438 33.019531 29.699219 C 32.722656 30 32.375 30.230469 31.984375 30.390625 C 31.59375 30.554688 31.1875 30.632812 30.761719 30.632812 Z M 30.761719 30.632812 " fill-opacity="1" fill-rule="nonzero"/></g><g clip-path="url(#54328636c8)"><path fill="#ffffff" d="M 37.148438 50.957031 C 37.703125 50.933594 38.289062 50.933594 38.816406 50.726562 C 39.570312 50.394531 40.148438 49.730469 40.476562 48.984375 C 41.511719 46.59375 39.746094 43.917969 37.148438 43.910156 C 35.21875 43.882812 33.582031 45.441406 33.472656 47.34375 C 30.410156 46.703125 29.171875 46.191406 29.148438 42.527344 C 29.097656 40.898438 29.277344 38.949219 28.125 37.609375 C 28 37.46875 27.863281 37.34375 27.71875 37.230469 C 29.042969 37.234375 30.371094 37.230469 31.695312 37.214844 C 33.203125 37.207031 34.707031 37.191406 36.214844 36.964844 C 36.355469 38.941406 37.933594 40.105469 39.886719 40.078125 C 40.441406 40.054688 41.027344 40.054688 41.554688 39.847656 C 42.308594 39.515625 42.886719 38.851562 43.214844 38.105469 C 44.25 35.714844 42.484375 33.042969 39.886719 33.03125 C 37.949219 33.003906 36.308594 34.574219 36.210938 36.484375 C 34.703125 36.257812 33.199219 36.246094 31.695312 36.234375 C 28.492188 36.199219 25.292969 36.21875 22.089844 36.28125 C 22.578125 35.894531 22.921875 35.328125 23.050781 34.722656 C 23.421875 33.136719 22.835938 31.4375 23.199219 29.910156 C 23.488281 28.691406 24.597656 28.277344 25.707031 28.019531 C 26.160156 27.902344 26.625 27.820312 27.082031 27.71875 C 27.117188 28.226562 27.253906 28.730469 27.503906 29.1875 C 28.824219 31.617188 32.238281 31.757812 33.742188 29.433594 C 34.117188 28.851562 34.3125 28.121094 34.117188 27.445312 C 34.074219 27.277344 33.835938 27.277344 33.792969 27.445312 C 33.597656 28.007812 33.417969 28.519531 33.089844 29 C 32.289062 30.140625 30.710938 30.503906 29.492188 29.824219 C 28.292969 29.160156 27.761719 27.683594 28.269531 26.410156 C 28.695312 25.363281 29.6875 24.695312 30.761719 24.414062 C 30.828125 24.398438 30.882812 24.351562 30.894531 24.28125 C 30.910156 24.191406 30.851562 24.105469 30.761719 24.089844 C 30.601562 24.058594 30.429688 24.023438 30.257812 24.027344 C 29.367188 24.003906 28.503906 24.445312 27.929688 25.117188 C 27.429688 25.703125 27.144531 26.4375 27.085938 27.191406 C 26.664062 27.128906 26.242188 27.113281 25.816406 27.136719 C 24.691406 27.203125 23.414062 27.625 22.699219 28.609375 C 21.660156 30.085938 22.199219 32.015625 22.214844 33.652344 C 22.269531 35.503906 21.367188 36.027344 19.730469 36.316406 C 18.847656 36.328125 17.933594 36.355469 17.152344 36.476562 C 17.113281 35.625 16.773438 34.78125 16.117188 34.113281 C 14.792969 32.769531 12.617188 32.671875 11.175781 33.890625 C 10.371094 34.574219 9.910156 35.683594 10.152344 36.726562 C 10.183594 36.902344 10.4375 36.90625 10.476562 36.726562 C 10.699219 35.898438 11.113281 35.15625 11.785156 34.628906 C 13.105469 33.582031 15.066406 33.984375 15.882812 35.453125 C 16.566406 36.671875 16.203125 38.25 15.058594 39.054688 C 14.578125 39.382812 14.070312 39.558594 13.503906 39.753906 C 13.449219 39.773438 13.398438 39.816406 13.382812 39.878906 C 13.359375 39.96875 13.414062 40.058594 13.503906 40.078125 C 13.710938 40.136719 13.929688 40.164062 14.144531 40.15625 C 14.625 40.140625 15.085938 39.960938 15.496094 39.703125 C 16.488281 39.070312 17.046875 38.042969 17.144531 36.976562 C 17.828125 37.089844 18.511719 37.109375 19.195312 37.117188 C 21.316406 37.15625 23.628906 37.203125 25.789062 37.222656 C 26.773438 37.472656 27.570312 37.910156 27.898438 38.964844 C 28.050781 39.4375 28.105469 39.917969 28.128906 40.421875 C 28.199219 41.84375 28.015625 43.359375 28.363281 44.785156 C 28.929688 47.222656 31.207031 48.140625 33.472656 47.847656 C 33.613281 49.820312 35.191406 50.984375 37.144531 50.957031 Z M 37.183594 36.726562 C 37.191406 35.257812 38.417969 34.039062 39.886719 34.035156 C 41.820312 34.023438 43.15625 35.988281 42.449219 37.785156 C 42.257812 38.296875 41.890625 38.742188 41.449219 39.066406 C 40.992188 39.410156 40.484375 39.769531 39.886719 39.753906 C 39.101562 39.75 38.363281 39.308594 37.910156 38.699219 C 37.472656 38.125 37.175781 37.449219 37.183594 36.726562 Z M 35.171875 49.578125 C 34.734375 49.003906 34.433594 48.328125 34.445312 47.601562 C 34.453125 46.132812 35.679688 44.917969 37.144531 44.914062 C 39.078125 44.898438 40.414062 46.867188 39.710938 48.664062 C 39.519531 49.175781 39.152344 49.621094 38.707031 49.941406 C 38.253906 50.289062 37.746094 50.648438 37.144531 50.632812 C 36.359375 50.628906 35.625 50.183594 35.171875 49.578125 Z M 35.171875 49.578125 " fill-opacity="1" fill-rule="nonzero"/></g><g transform="matrix(1, 0, 0, 1, 56, 22)"><g clip-path="url(#f9bdb8f5da)"><g fill="#f29b2b" fill-opacity="1"><g transform="translate(1.438083, 22.661577)"><g><path d="M 2.234375 -15.921875 L 5.734375 -15.921875 L 5.734375 0 L 2.234375 0 Z M 2.234375 -15.921875 "/></g></g></g><g fill="#f29b2b" fill-opacity="1"><g transform="translate(13.83261, 22.661577)"><g><path d="M 14.328125 -3.109375 C 14.328125 -2.640625 14.34375 -2.085938 14.375 -1.453125 C 14.40625 -1.023438 14.421875 -0.742188 14.421875 -0.609375 C 14.421875 -0.203125 14.222656 0 13.828125 0 L 10.875 0 L 10.875 -0.78125 C 10.875 -1.53125 10.578125 -2.367188 9.984375 -3.296875 L 4.953125 -11.03125 L 4.953125 0 L 1.5 0 L 1.5 -15.921875 L 4.640625 -15.921875 C 4.835938 -15.921875 5 -15.894531 5.125 -15.84375 C 5.257812 -15.789062 5.382812 -15.664062 5.5 -15.46875 L 10.875 -7.296875 L 10.875 -15.921875 L 14.328125 -15.921875 Z M 14.328125 -3.109375 "/></g></g></g><g fill="#f29b2b" fill-opacity="1"><g transform="translate(34.185439, 22.661577)"><g><path d="M 2.234375 -15.921875 L 5.734375 -15.921875 L 5.734375 0 L 2.234375 0 Z M 2.234375 -15.921875 "/></g></g></g><g fill="#f29b2b" fill-opacity="1"><g transform="translate(46.579966, 22.661577)"><g><path d="M 11.8125 -15.921875 C 11.863281 -15.554688 11.890625 -15.222656 11.890625 -14.921875 C 11.890625 -14.410156 11.804688 -14.03125 11.640625 -13.78125 C 11.472656 -13.539062 11.210938 -13.421875 10.859375 -13.421875 L 7.796875 -13.421875 L 7.796875 0 L 4.34375 0 L 4.34375 -13.421875 L 0.34375 -13.421875 L 0.34375 -15.921875 Z M 11.8125 -15.921875 "/></g></g></g><g fill="#f29b2b" fill-opacity="1"><g transform="translate(63.158287, 22.661577)"><g><path d="M 13.984375 -0.296875 C 13.835938 -0.160156 13.570312 -0.046875 13.1875 0.046875 C 12.8125 0.140625 12.421875 0.1875 12.015625 0.1875 C 11.492188 0.1875 11.097656 0.117188 10.828125 -0.015625 C 10.554688 -0.160156 10.34375 -0.398438 10.1875 -0.734375 L 8.515625 -4.5 C 8.253906 -5.0625 7.976562 -5.441406 7.6875 -5.640625 C 7.394531 -5.835938 6.972656 -5.9375 6.421875 -5.9375 L 5.234375 -5.9375 L 5.234375 0 L 1.734375 0 L 1.734375 -15.921875 L 7.140625 -15.921875 C 9.171875 -15.921875 10.734375 -15.488281 11.828125 -14.625 C 12.921875 -13.757812 13.46875 -12.523438 13.46875 -10.921875 C 13.46875 -9.929688 13.226562 -9.082031 12.75 -8.375 C 12.269531 -7.675781 11.578125 -7.144531 10.671875 -6.78125 C 11.078125 -6.351562 11.414062 -5.835938 11.6875 -5.234375 Z M 6.921875 -8.390625 C 7.984375 -8.390625 8.75 -8.585938 9.21875 -8.984375 C 9.6875 -9.378906 9.921875 -10.023438 9.921875 -10.921875 C 9.921875 -11.816406 9.6875 -12.460938 9.21875 -12.859375 C 8.75 -13.265625 7.984375 -13.46875 6.921875 -13.46875 L 5.234375 -13.46875 L 5.234375 -8.390625 Z M 6.921875 -8.390625 "/></g></g></g><g fill="#f29b2b" fill-opacity="1"><g transform="translate(82.146835, 22.661577)"><g><path d="M 11.265625 0 C 11.035156 -1.625 10.8125 -2.9375 10.59375 -3.9375 L 4.40625 -3.9375 C 4.195312 -2.9375 3.976562 -1.625 3.75 0 L 0.34375 0 C 0.914062 -5.507812 2.71875 -10.816406 5.75 -15.921875 L 9.28125 -15.921875 C 12.300781 -10.835938 14.097656 -5.53125 14.671875 0 Z M 10.0625 -6.4375 C 9.414062 -8.9375 8.5625 -11.234375 7.5 -13.328125 C 6.445312 -11.234375 5.597656 -8.9375 4.953125 -6.4375 Z M 10.0625 -6.4375 "/></g></g></g></g></g></svg>